<?xml version="1.0" encoding="UTF-8" standalone="no"?>
<!DOCTYPE svg PUBLIC "-//W3C//DTD SVG 1.1//EN"
 "http://www.w3.org/Graphics/SVG/1.1/DTD/svg11.dtd">
<!-- Generated by graphviz version 2.38.0 (20140413.2041)
 -->
<!-- Title: models_diagram Pages: 1 -->
<svg width="1176pt" height="232pt"
 viewBox="0.00 0.00 1176.00 232.00" xmlns="http://www.w3.org/2000/svg" xmlns:xlink="http://www.w3.org/1999/xlink">
<g id="graph0" class="graph" transform="scale(1 1) rotate(0) translate(4 228)">
<title>models_diagram</title>
<polygon fill="none" stroke="none" points="-4,4 -4,-228 1172,-228 1172,4 -4,4"/>
<!-- _diagram_info -->
<g id="node1" class="node"><title>_diagram_info</title>
<text text-anchor="start" x="8" y="-209.6" font-family="Times,serif" font-size="13.00">Models diagram</text>
<text text-anchor="start" x="8" y="-195.6" font-family="Times,serif" font-size="13.00">Date: Nov 21 2017 &#45; 16:49</text>
<text text-anchor="start" x="8" y="-181.6" font-family="Times,serif" font-size="13.00">Migration version: 20171116171448</text>
<text text-anchor="start" x="8" y="-167.6" font-family="Times,serif" font-size="13.00">Generated by RailRoady 1.5.3</text>
<text text-anchor="start" x="8" y="-153.6" font-family="Times,serif" font-size="13.00">http://railroady.prestonlee.com</text>
</g>
<!-- PostsRead -->
<g id="node2" class="node"><title>PostsRead</title>
<ellipse fill="none" stroke="black" cx="310.5" cy="-18" rx="59.2899" ry="18"/>
<text text-anchor="middle" x="310.5" y="-14.3" font-family="Times,serif" font-size="14.00">PostsRead</text>
</g>
<!-- Broadcast -->
<g id="node3" class="node"><title>Broadcast</title>
<ellipse fill="none" stroke="black" cx="494.5" cy="-91" rx="57.6901" ry="18"/>
<text text-anchor="middle" x="494.5" y="-87.3" font-family="Times,serif" font-size="14.00">Broadcast</text>
</g>
<!-- Feed -->
<g id="node6" class="node"><title>Feed</title>
<ellipse fill="none" stroke="black" cx="494.5" cy="-18" rx="33.2948" ry="18"/>
<text text-anchor="middle" x="494.5" y="-14.3" font-family="Times,serif" font-size="14.00">Feed</text>
</g>
<!-- Broadcast&#45;&gt;Feed -->
<g id="edge1" class="edge"><title>Broadcast&#45;&gt;Feed</title>
<path fill="none" stroke="#56ac29" d="M494.5,-62.7534C494.5,-57.2761 494.5,-51.5214 494.5,-46.0508"/>
<polygon fill="#56ac29" stroke="#56ac29" points="494.5,-62.8129 490,-72.8128 494.5,-67.8129 494.5,-72.8129 494.5,-72.8129 494.5,-72.8129 494.5,-67.8129 499,-72.8129 494.5,-62.8129 494.5,-62.8129"/>
<polygon fill="#56ac29" stroke="#56ac29" points="494.5,-46.0288 499,-36.0288 494.5,-41.0288 494.5,-36.0288 494.5,-36.0288 494.5,-36.0288 494.5,-41.0288 490,-36.0289 494.5,-46.0288 494.5,-46.0288"/>
</g>
<!-- UserDetail -->
<g id="node4" class="node"><title>UserDetail</title>
<ellipse fill="none" stroke="black" cx="630.5" cy="-91" rx="60.3893" ry="18"/>
<text text-anchor="middle" x="630.5" y="-87.3" font-family="Times,serif" font-size="14.00">UserDetail</text>
</g>
<!-- ApplicationRecord -->
<g id="node5" class="node"><title>ApplicationRecord</title>
<ellipse fill="none" stroke="black" cx="777.5" cy="-185" rx="96.6831" ry="18"/>
<text text-anchor="middle" x="777.5" y="-181.3" font-family="Times,serif" font-size="14.00">ApplicationRecord</text>
</g>
<!-- User -->
<g id="node7" class="node"><title>User</title>
<ellipse fill="none" stroke="black" cx="630.5" cy="-185" rx="32.4942" ry="18"/>
<text text-anchor="middle" x="630.5" y="-181.3" font-family="Times,serif" font-size="14.00">User</text>
</g>
<!-- User&#45;&gt;Broadcast -->
<g id="edge4" class="edge"><title>User&#45;&gt;Broadcast</title>
<path fill="none" stroke="#afd925" d="M603.975,-166.057C581.569,-150.899 549.441,-129.166 525.783,-113.162"/>
<ellipse fill="none" stroke="#afd925" cx="607.411" cy="-168.381" rx="4.00002" ry="4.00002"/>
<polygon fill="#afd925" stroke="#afd925" points="525.767,-113.151 520.005,-103.821 521.625,-110.35 517.484,-107.548 517.484,-107.548 517.484,-107.548 521.625,-110.35 514.963,-111.275 525.767,-113.151 525.767,-113.151"/>
</g>
<!-- User&#45;&gt;UserDetail -->
<g id="edge3" class="edge"><title>User&#45;&gt;UserDetail</title>
<path fill="none" stroke="#f2a7bf" d="M630.5,-158.451C630.5,-145.702 630.5,-130.322 630.5,-117.57"/>
<ellipse fill="none" stroke="#f2a7bf" cx="630.5" cy="-162.696" rx="4" ry="4"/>
<ellipse fill="#f2a7bf" stroke="#f2a7bf" cx="630.5" cy="-113.227" rx="4" ry="4"/>
</g>
<!-- Image -->
<g id="node9" class="node"><title>Image</title>
<ellipse fill="none" stroke="black" cx="749.5" cy="-91" rx="40.0939" ry="18"/>
<text text-anchor="middle" x="749.5" y="-87.3" font-family="Times,serif" font-size="14.00">Image</text>
</g>
<!-- User&#45;&gt;Image -->
<g id="edge2" class="edge"><title>User&#45;&gt;Image</title>
<path fill="none" stroke="#56aa16" d="M651.586,-163.39C657.836,-157.578 664.802,-151.377 671.5,-146 687.062,-133.506 705.367,-120.741 720.332,-110.761"/>
<ellipse fill="none" stroke="#56aa16" cx="648.522" cy="-166.283" rx="4.00002" ry="4.00002"/>
<ellipse fill="#56aa16" stroke="#56aa16" cx="724.047" cy="-108.305" rx="4.00002" ry="4.00002"/>
</g>
<!-- BroadcastService -->
<g id="node8" class="node"><title>BroadcastService</title>
<polygon fill="none" stroke="black" points="1035,-203 892,-203 892,-167 1035,-167 1035,-203"/>
<text text-anchor="middle" x="963.5" y="-181.3" font-family="Times,serif" font-size="14.00">BroadcastService</text>
</g>
<!-- ImageService -->
<g id="node10" class="node"><title>ImageService</title>
<polygon fill="none" stroke="black" points="1168,-203 1053,-203 1053,-167 1168,-167 1168,-203"/>
<text text-anchor="middle" x="1110.5" y="-181.3" font-family="Times,serif" font-size="14.00">ImageService</text>
</g>
<!-- Post -->
<g id="node11" class="node"><title>Post</title>
<ellipse fill="none" stroke="black" cx="310.5" cy="-91" rx="30.5947" ry="18"/>
<text text-anchor="middle" x="310.5" y="-87.3" font-family="Times,serif" font-size="14.00">Post</text>
</g>
<!-- Post&#45;&gt;PostsRead -->
<g id="edge6" class="edge"><title>Post&#45;&gt;PostsRead</title>
<path fill="none" stroke="#9d3826" d="M310.5,-64.791C310.5,-58.832 310.5,-52.4496 310.5,-46.3988"/>
<ellipse fill="none" stroke="#9d3826" cx="310.5" cy="-68.8129" rx="4" ry="4"/>
<polygon fill="#9d3826" stroke="#9d3826" points="310.5,-46.0288 315,-36.0288 310.5,-41.0288 310.5,-36.0288 310.5,-36.0288 310.5,-36.0288 310.5,-41.0288 306,-36.0289 310.5,-46.0288 310.5,-46.0288"/>
</g>
<!-- Post&#45;&gt;Post -->
<g id="edge5" class="edge"><title>Post&#45;&gt;Post</title>
<path fill="none" stroke="#86dd7b" d="M347.152,-97.4241C354.121,-96.6526 359.047,-94.5112 359.047,-91 359.047,-87.8623 355.114,-85.8185 349.303,-84.8686"/>
<ellipse fill="none" stroke="#86dd7b" cx="342.921" cy="-97.5781" rx="4" ry="4"/>
<polygon fill="#86dd7b" stroke="#86dd7b" points="348.907,-84.8461 339.18,-79.7837 343.915,-84.5612 338.923,-84.2764 338.923,-84.2764 338.923,-84.2764 343.915,-84.5612 338.667,-88.7691 348.907,-84.8461 348.907,-84.8461"/>
<text text-anchor="middle" x="389.047" y="-87.3" font-family="Times,serif" font-size="14.00">children</text>
</g>
<!-- Topic -->
<g id="node12" class="node"><title>Topic</title>
<ellipse fill="none" stroke="black" cx="310.5" cy="-185" rx="35.9954" ry="18"/>
<text text-anchor="middle" x="310.5" y="-181.3" font-family="Times,serif" font-size="14.00">Topic</text>
</g>
<!-- Topic&#45;&gt;Post -->
<g id="edge7" class="edge"><title>Topic&#45;&gt;Post</title>
<path fill="none" stroke="#40d812" d="M310.5,-158.451C310.5,-146.315 310.5,-131.795 310.5,-119.427"/>
<ellipse fill="none" stroke="#40d812" cx="310.5" cy="-162.696" rx="4" ry="4"/>
<polygon fill="#40d812" stroke="#40d812" points="310.5,-119.227 315,-109.227 310.5,-114.227 310.5,-109.227 310.5,-109.227 310.5,-109.227 310.5,-114.227 306,-109.227 310.5,-119.227 310.5,-119.227"/>
</g>
</g>
</svg>
