<?xml version="1.0" encoding="UTF-8" standalone="no"?>
<!DOCTYPE svg PUBLIC "-//W3C//DTD SVG 1.1//EN"
 "http://www.w3.org/Graphics/SVG/1.1/DTD/svg11.dtd">
<!-- Generated by graphviz version 2.38.0 (20140413.2041)
 -->
<!-- Title: controllers_diagram Pages: 1 -->
<svg width="846pt" height="816pt"
 viewBox="0.00 0.00 845.50 816.00" xmlns="http://www.w3.org/2000/svg" xmlns:xlink="http://www.w3.org/1999/xlink">
<g id="graph0" class="graph" transform="scale(1 1) rotate(0) translate(277 455.5)">
<title>controllers_diagram</title>
<polygon fill="none" stroke="none" points="-277,360.5 -277,-455.5 568.5,-455.5 568.5,360.5 -277,360.5"/>
<!-- _diagram_info -->
<g id="node1" class="node"><title>_diagram_info</title>
<text text-anchor="start" x="-264.5" y="209.4" font-family="Times,serif" font-size="13.00">Controllers diagram</text>
<text text-anchor="start" x="-264.5" y="223.4" font-family="Times,serif" font-size="13.00">Date: Nov 21 2017 &#45; 16:49</text>
<text text-anchor="start" x="-264.5" y="237.4" font-family="Times,serif" font-size="13.00">Migration version: 20171116171448</text>
<text text-anchor="start" x="-264.5" y="251.4" font-family="Times,serif" font-size="13.00">Generated by RailRoady 1.5.3</text>
<text text-anchor="start" x="-264.5" y="265.4" font-family="Times,serif" font-size="13.00">http://railroady.prestonlee.com</text>
</g>
<!-- BroadcastsController -->
<g id="node2" class="node"><title>BroadcastsController</title>
<path fill="none" stroke="black" d="M180,-168.5C180,-168.5 362,-168.5 362,-168.5 368,-168.5 374,-174.5 374,-180.5 374,-180.5 374,-369.5 374,-369.5 374,-375.5 368,-381.5 362,-381.5 362,-381.5 180,-381.5 180,-381.5 174,-381.5 168,-375.5 168,-369.5 168,-369.5 168,-180.5 168,-180.5 168,-174.5 174,-168.5 180,-168.5"/>
<text text-anchor="middle" x="271" y="-366.3" font-family="Times,serif" font-size="14.00">BroadcastsController</text>
<polyline fill="none" stroke="black" points="168,-358.5 374,-358.5 "/>
<text text-anchor="start" x="176" y="-343.3" font-family="Times,serif" font-size="14.00">create</text>
<text text-anchor="start" x="176" y="-328.3" font-family="Times,serif" font-size="14.00">destroy</text>
<text text-anchor="start" x="176" y="-313.3" font-family="Times,serif" font-size="14.00">index</text>
<text text-anchor="start" x="176" y="-298.3" font-family="Times,serif" font-size="14.00">new</text>
<text text-anchor="start" x="176" y="-283.3" font-family="Times,serif" font-size="14.00">show</text>
<polyline fill="none" stroke="black" points="168,-275.5 374,-275.5 "/>
<polyline fill="none" stroke="black" points="168,-251.5 374,-251.5 "/>
<text text-anchor="start" x="176" y="-236.3" font-family="Times,serif" font-size="14.00">_layout</text>
<text text-anchor="start" x="176" y="-221.3" font-family="Times,serif" font-size="14.00">broadcast_params</text>
<text text-anchor="start" x="176" y="-206.3" font-family="Times,serif" font-size="14.00">set_broadcast</text>
<text text-anchor="start" x="176" y="-191.3" font-family="Times,serif" font-size="14.00">set_current_page</text>
<text text-anchor="start" x="176" y="-176.3" font-family="Times,serif" font-size="14.00">squelch_record_not_found</text>
</g>
<!-- TopicsController -->
<g id="node3" class="node"><title>TopicsController</title>
<path fill="none" stroke="black" d="M-239.5,-253C-239.5,-253 -108.5,-253 -108.5,-253 -102.5,-253 -96.5,-259 -96.5,-265 -96.5,-265 -96.5,-439 -96.5,-439 -96.5,-445 -102.5,-451 -108.5,-451 -108.5,-451 -239.5,-451 -239.5,-451 -245.5,-451 -251.5,-445 -251.5,-439 -251.5,-439 -251.5,-265 -251.5,-265 -251.5,-259 -245.5,-253 -239.5,-253"/>
<text text-anchor="middle" x="-174" y="-435.8" font-family="Times,serif" font-size="14.00">TopicsController</text>
<polyline fill="none" stroke="black" points="-251.5,-428 -96.5,-428 "/>
<text text-anchor="start" x="-243.5" y="-412.8" font-family="Times,serif" font-size="14.00">create</text>
<text text-anchor="start" x="-243.5" y="-397.8" font-family="Times,serif" font-size="14.00">destroy</text>
<text text-anchor="start" x="-243.5" y="-382.8" font-family="Times,serif" font-size="14.00">index</text>
<text text-anchor="start" x="-243.5" y="-367.8" font-family="Times,serif" font-size="14.00">is_owner_or_admin</text>
<text text-anchor="start" x="-243.5" y="-352.8" font-family="Times,serif" font-size="14.00">new</text>
<text text-anchor="start" x="-243.5" y="-337.8" font-family="Times,serif" font-size="14.00">show</text>
<polyline fill="none" stroke="black" points="-251.5,-330 -96.5,-330 "/>
<polyline fill="none" stroke="black" points="-251.5,-306 -96.5,-306 "/>
<text text-anchor="start" x="-243.5" y="-290.8" font-family="Times,serif" font-size="14.00">_layout</text>
<text text-anchor="start" x="-243.5" y="-275.8" font-family="Times,serif" font-size="14.00">set_topic</text>
<text text-anchor="start" x="-243.5" y="-260.8" font-family="Times,serif" font-size="14.00">topic_params</text>
</g>
<!-- PostsController -->
<g id="node4" class="node"><title>PostsController</title>
<path fill="none" stroke="black" d="M-261,-0C-261,-0 -157,-0 -157,-0 -151,-0 -145,-6 -145,-12 -145,-12 -145,-156 -145,-156 -145,-162 -151,-168 -157,-168 -157,-168 -261,-168 -261,-168 -267,-168 -273,-162 -273,-156 -273,-156 -273,-12 -273,-12 -273,-6 -267,-0 -261,-0"/>
<text text-anchor="middle" x="-209" y="-152.8" font-family="Times,serif" font-size="14.00">PostsController</text>
<polyline fill="none" stroke="black" points="-273,-145 -145,-145 "/>
<text text-anchor="start" x="-265" y="-129.8" font-family="Times,serif" font-size="14.00">create</text>
<text text-anchor="start" x="-265" y="-114.8" font-family="Times,serif" font-size="14.00">destroy</text>
<text text-anchor="start" x="-265" y="-99.8" font-family="Times,serif" font-size="14.00">new</text>
<text text-anchor="start" x="-265" y="-84.8" font-family="Times,serif" font-size="14.00">update</text>
<polyline fill="none" stroke="black" points="-273,-77 -145,-77 "/>
<polyline fill="none" stroke="black" points="-273,-53 -145,-53 "/>
<text text-anchor="start" x="-265" y="-37.8" font-family="Times,serif" font-size="14.00">_layout</text>
<text text-anchor="start" x="-265" y="-22.8" font-family="Times,serif" font-size="14.00">post_params</text>
<text text-anchor="start" x="-265" y="-7.8" font-family="Times,serif" font-size="14.00">set_post</text>
</g>
<!-- SessionsController -->
<g id="node5" class="node"><title>SessionsController</title>
<path fill="none" stroke="black" d="M369,230.5C369,230.5 497,230.5 497,230.5 503,230.5 509,224.5 509,218.5 509,218.5 509,119.5 509,119.5 509,113.5 503,107.5 497,107.5 497,107.5 369,107.5 369,107.5 363,107.5 357,113.5 357,119.5 357,119.5 357,218.5 357,218.5 357,224.5 363,230.5 369,230.5"/>
<text text-anchor="middle" x="433" y="122.7" font-family="Times,serif" font-size="14.00">SessionsController</text>
<polyline fill="none" stroke="black" points="357,130.5 509,130.5 "/>
<text text-anchor="start" x="365" y="145.7" font-family="Times,serif" font-size="14.00">create</text>
<text text-anchor="start" x="365" y="160.7" font-family="Times,serif" font-size="14.00">destroy</text>
<text text-anchor="start" x="365" y="175.7" font-family="Times,serif" font-size="14.00">new</text>
<polyline fill="none" stroke="black" points="357,183.5 509,183.5 "/>
<polyline fill="none" stroke="black" points="357,207.5 509,207.5 "/>
<text text-anchor="start" x="365" y="222.7" font-family="Times,serif" font-size="14.00">_layout</text>
</g>
<!-- ApplicationController -->
<g id="node6" class="node"><title>ApplicationController</title>
<path fill="none" stroke="black" d="M-92.5,146C-92.5,146 80.5,146 80.5,146 86.5,146 92.5,140 92.5,134 92.5,134 92.5,-130 92.5,-130 92.5,-136 86.5,-142 80.5,-142 80.5,-142 -92.5,-142 -92.5,-142 -98.5,-142 -104.5,-136 -104.5,-130 -104.5,-130 -104.5,134 -104.5,134 -104.5,140 -98.5,146 -92.5,146"/>
<text text-anchor="middle" x="-6" y="-126.8" font-family="Times,serif" font-size="14.00">ApplicationController</text>
<polyline fill="none" stroke="black" points="-104.5,-119 92.5,-119 "/>
<text text-anchor="start" x="-96.5" y="-103.8" font-family="Times,serif" font-size="14.00">access_denied</text>
<text text-anchor="start" x="-96.5" y="-88.8" font-family="Times,serif" font-size="14.00">admin_denied</text>
<text text-anchor="start" x="-96.5" y="-73.8" font-family="Times,serif" font-size="14.00">admin_required</text>
<text text-anchor="start" x="-96.5" y="-58.8" font-family="Times,serif" font-size="14.00">current_user</text>
<text text-anchor="start" x="-96.5" y="-43.8" font-family="Times,serif" font-size="14.00">current_user=</text>
<text text-anchor="start" x="-96.5" y="-28.8" font-family="Times,serif" font-size="14.00">get_notifications</text>
<text text-anchor="start" x="-96.5" y="-13.8" font-family="Times,serif" font-size="14.00">is_admin?</text>
<text text-anchor="start" x="-96.5" y="1.2" font-family="Times,serif" font-size="14.00">logged_in?</text>
<text text-anchor="start" x="-96.5" y="16.2" font-family="Times,serif" font-size="14.00">login_from_basic_auth</text>
<text text-anchor="start" x="-96.5" y="31.2" font-family="Times,serif" font-size="14.00">login_from_session</text>
<text text-anchor="start" x="-96.5" y="46.2" font-family="Times,serif" font-size="14.00">login_required</text>
<text text-anchor="start" x="-96.5" y="61.2" font-family="Times,serif" font-size="14.00">redirect_back_or_default</text>
<text text-anchor="start" x="-96.5" y="76.2" font-family="Times,serif" font-size="14.00">set_locale</text>
<text text-anchor="start" x="-96.5" y="91.2" font-family="Times,serif" font-size="14.00">store_location</text>
<polyline fill="none" stroke="black" points="-104.5,99 92.5,99 "/>
<polyline fill="none" stroke="black" points="-104.5,123 92.5,123 "/>
<text text-anchor="start" x="-96.5" y="138.2" font-family="Times,serif" font-size="14.00">_layout</text>
</g>
<!-- UsersController -->
<g id="node7" class="node"><title>UsersController</title>
<path fill="none" stroke="black" d="M138,125.5C138,125.5 302,125.5 302,125.5 308,125.5 314,119.5 314,113.5 314,113.5 314,-105.5 314,-105.5 314,-111.5 308,-117.5 302,-117.5 302,-117.5 138,-117.5 138,-117.5 132,-117.5 126,-111.5 126,-105.5 126,-105.5 126,113.5 126,113.5 126,119.5 132,125.5 138,125.5"/>
<text text-anchor="middle" x="220" y="-102.3" font-family="Times,serif" font-size="14.00">UsersController</text>
<polyline fill="none" stroke="black" points="126,-94.5 314,-94.5 "/>
<text text-anchor="start" x="134" y="-79.3" font-family="Times,serif" font-size="14.00">create</text>
<text text-anchor="start" x="134" y="-64.3" font-family="Times,serif" font-size="14.00">destroy</text>
<text text-anchor="start" x="134" y="-49.3" font-family="Times,serif" font-size="14.00">edit</text>
<text text-anchor="start" x="134" y="-34.3" font-family="Times,serif" font-size="14.00">index</text>
<text text-anchor="start" x="134" y="-19.3" font-family="Times,serif" font-size="14.00">new</text>
<text text-anchor="start" x="134" y="-4.3" font-family="Times,serif" font-size="14.00">search</text>
<text text-anchor="start" x="134" y="10.7" font-family="Times,serif" font-size="14.00">show</text>
<text text-anchor="start" x="134" y="25.7" font-family="Times,serif" font-size="14.00">update</text>
<polyline fill="none" stroke="black" points="126,33.5 314,33.5 "/>
<polyline fill="none" stroke="black" points="126,57.5 314,57.5 "/>
<text text-anchor="start" x="134" y="72.7" font-family="Times,serif" font-size="14.00">_layout</text>
<text text-anchor="start" x="134" y="87.7" font-family="Times,serif" font-size="14.00">indicate_illegal_request</text>
<text text-anchor="start" x="134" y="102.7" font-family="Times,serif" font-size="14.00">show_record_not_found</text>
<text text-anchor="start" x="134" y="117.7" font-family="Times,serif" font-size="14.00">user_params</text>
</g>
<!-- API::TopicsController -->
<g id="node8" class="node"><title>API::TopicsController</title>
<path fill="none" stroke="black" d="M137.5,336C137.5,336 300.5,336 300.5,336 306.5,336 312.5,330 312.5,324 312.5,324 312.5,180 312.5,180 312.5,174 306.5,168 300.5,168 300.5,168 137.5,168 137.5,168 131.5,168 125.5,174 125.5,180 125.5,180 125.5,324 125.5,324 125.5,330 131.5,336 137.5,336"/>
<text text-anchor="middle" x="219" y="183.2" font-family="Times,serif" font-size="14.00">API::TopicsController</text>
<polyline fill="none" stroke="black" points="125.5,191 312.5,191 "/>
<text text-anchor="start" x="133.5" y="206.2" font-family="Times,serif" font-size="14.00">create</text>
<text text-anchor="start" x="133.5" y="221.2" font-family="Times,serif" font-size="14.00">index</text>
<text text-anchor="start" x="133.5" y="236.2" font-family="Times,serif" font-size="14.00">show</text>
<polyline fill="none" stroke="black" points="125.5,244 312.5,244 "/>
<polyline fill="none" stroke="black" points="125.5,268 312.5,268 "/>
<text text-anchor="start" x="133.5" y="283.2" font-family="Times,serif" font-size="14.00">_layout</text>
<text text-anchor="start" x="133.5" y="298.2" font-family="Times,serif" font-size="14.00">post_params</text>
<text text-anchor="start" x="133.5" y="313.2" font-family="Times,serif" font-size="14.00">set_topic</text>
<text text-anchor="start" x="133.5" y="328.2" font-family="Times,serif" font-size="14.00">show_record_not_found</text>
</g>
<!-- API::ApplicationController -->
<g id="node9" class="node"><title>API::ApplicationController</title>
<path fill="none" stroke="black" d="M369.5,356C369.5,356 552.5,356 552.5,356 558.5,356 564.5,350 564.5,344 564.5,344 564.5,274 564.5,274 564.5,268 558.5,262 552.5,262 552.5,262 369.5,262 369.5,262 363.5,262 357.5,268 357.5,274 357.5,274 357.5,344 357.5,344 357.5,350 363.5,356 369.5,356"/>
<text text-anchor="middle" x="461" y="277.2" font-family="Times,serif" font-size="14.00">API::ApplicationController</text>
<polyline fill="none" stroke="black" points="357.5,285 564.5,285 "/>
<polyline fill="none" stroke="black" points="357.5,309 564.5,309 "/>
<polyline fill="none" stroke="black" points="357.5,333 564.5,333 "/>
<text text-anchor="start" x="365.5" y="348.2" font-family="Times,serif" font-size="14.00">_layout</text>
</g>
<!-- API::UsersController -->
<g id="node10" class="node"><title>API::UsersController</title>
<path fill="none" stroke="black" d="M-51,-190C-51,-190 113,-190 113,-190 119,-190 125,-196 125,-202 125,-202 125,-406 125,-406 125,-412 119,-418 113,-418 113,-418 -51,-418 -51,-418 -57,-418 -63,-412 -63,-406 -63,-406 -63,-202 -63,-202 -63,-196 -57,-190 -51,-190"/>
<text text-anchor="middle" x="31" y="-402.8" font-family="Times,serif" font-size="14.00">API::UsersController</text>
<polyline fill="none" stroke="black" points="-63,-395 125,-395 "/>
<text text-anchor="start" x="-55" y="-379.8" font-family="Times,serif" font-size="14.00">create</text>
<text text-anchor="start" x="-55" y="-364.8" font-family="Times,serif" font-size="14.00">destroy</text>
<text text-anchor="start" x="-55" y="-349.8" font-family="Times,serif" font-size="14.00">index</text>
<text text-anchor="start" x="-55" y="-334.8" font-family="Times,serif" font-size="14.00">search</text>
<text text-anchor="start" x="-55" y="-319.8" font-family="Times,serif" font-size="14.00">show</text>
<text text-anchor="start" x="-55" y="-304.8" font-family="Times,serif" font-size="14.00">update</text>
<polyline fill="none" stroke="black" points="-63,-297 125,-297 "/>
<polyline fill="none" stroke="black" points="-63,-273 125,-273 "/>
<text text-anchor="start" x="-55" y="-257.8" font-family="Times,serif" font-size="14.00">_layout</text>
<text text-anchor="start" x="-55" y="-242.8" font-family="Times,serif" font-size="14.00">indicate_illegal_request</text>
<text text-anchor="start" x="-55" y="-227.8" font-family="Times,serif" font-size="14.00">show_record_not_found</text>
<text text-anchor="start" x="-55" y="-212.8" font-family="Times,serif" font-size="14.00">user_detail_params</text>
<text text-anchor="start" x="-55" y="-197.8" font-family="Times,serif" font-size="14.00">user_params</text>
</g>
<!-- HomeController -->
<g id="node11" class="node"><title>HomeController</title>
<path fill="none" stroke="black" d="M-260.5,125.5C-260.5,125.5 -151.5,125.5 -151.5,125.5 -145.5,125.5 -139.5,119.5 -139.5,113.5 -139.5,113.5 -139.5,44.5 -139.5,44.5 -139.5,38.5 -145.5,32.5 -151.5,32.5 -151.5,32.5 -260.5,32.5 -260.5,32.5 -266.5,32.5 -272.5,38.5 -272.5,44.5 -272.5,44.5 -272.5,113.5 -272.5,113.5 -272.5,119.5 -266.5,125.5 -260.5,125.5"/>
<text text-anchor="middle" x="-206" y="47.7" font-family="Times,serif" font-size="14.00">HomeController</text>
<polyline fill="none" stroke="black" points="-272.5,55.5 -139.5,55.5 "/>
<text text-anchor="start" x="-264.5" y="70.7" font-family="Times,serif" font-size="14.00">index</text>
<polyline fill="none" stroke="black" points="-272.5,78.5 -139.5,78.5 "/>
<polyline fill="none" stroke="black" points="-272.5,102.5 -139.5,102.5 "/>
<text text-anchor="start" x="-264.5" y="117.7" font-family="Times,serif" font-size="14.00">_layout</text>
</g>
</g>
</svg>
