<?xml version="1.0" encoding="UTF-8" standalone="no"?>
<!DOCTYPE svg PUBLIC "-//W3C//DTD SVG 1.1//EN"
 "http://www.w3.org/Graphics/SVG/1.1/DTD/svg11.dtd">
<!-- Generated by graphviz version 2.38.0 (20140413.2041)
 -->
<!-- Title: models_diagram Pages: 1 -->
<svg width="1836pt" height="538pt"
 viewBox="0.00 0.00 1836.00 538.00" xmlns="http://www.w3.org/2000/svg" xmlns:xlink="http://www.w3.org/1999/xlink">
<g id="graph0" class="graph" transform="scale(1 1) rotate(0) translate(4 534)">
<title>models_diagram</title>
<polygon fill="none" stroke="none" points="-4,4 -4,-534 1832,-534 1832,4 -4,4"/>
<!-- _diagram_info -->
<g id="node1" class="node"><title>_diagram_info</title>
<text text-anchor="start" x="8" y="-471.1" font-family="Times,serif" font-size="13.00">Models diagram</text>
<text text-anchor="start" x="8" y="-457.1" font-family="Times,serif" font-size="13.00">Date: Nov 21 2017 &#45; 16:49</text>
<text text-anchor="start" x="8" y="-443.1" font-family="Times,serif" font-size="13.00">Migration version: 20171116171448</text>
<text text-anchor="start" x="8" y="-429.1" font-family="Times,serif" font-size="13.00">Generated by RailRoady 1.5.3</text>
<text text-anchor="start" x="8" y="-415.1" font-family="Times,serif" font-size="13.00">http://railroady.prestonlee.com</text>
</g>
<!-- PostsRead -->
<g id="node2" class="node"><title>PostsRead</title>
<path fill="none" stroke="black" d="M287.5,-0.5C287.5,-0.5 579.5,-0.5 579.5,-0.5 585.5,-0.5 591.5,-6.5 591.5,-12.5 591.5,-12.5 591.5,-109.5 591.5,-109.5 591.5,-115.5 585.5,-121.5 579.5,-121.5 579.5,-121.5 287.5,-121.5 287.5,-121.5 281.5,-121.5 275.5,-115.5 275.5,-109.5 275.5,-109.5 275.5,-12.5 275.5,-12.5 275.5,-6.5 281.5,-0.5 287.5,-0.5"/>
<text text-anchor="middle" x="433.5" y="-106.3" font-family="Times,serif" font-size="14.00">PostsRead</text>
<polyline fill="none" stroke="black" points="275.5,-98.5 591.5,-98.5 "/>
<text text-anchor="start" x="283.5" y="-83.3" font-family="Times,serif" font-size="14.00">id :bigint</text>
<text text-anchor="start" x="283.5" y="-68.3" font-family="Times,serif" font-size="14.00">user_id :bigint</text>
<text text-anchor="start" x="283.5" y="-53.3" font-family="Times,serif" font-size="14.00">topic_id :bigint</text>
<text text-anchor="start" x="283.5" y="-38.3" font-family="Times,serif" font-size="14.00">post_id :bigint</text>
<text text-anchor="start" x="283.5" y="-23.3" font-family="Times,serif" font-size="14.00">created_at :timestamp without time zone</text>
<text text-anchor="start" x="283.5" y="-8.3" font-family="Times,serif" font-size="14.00">updated_at :timestamp without time zone</text>
</g>
<!-- Broadcast -->
<g id="node3" class="node"><title>Broadcast</title>
<path fill="none" stroke="black" d="M699.5,-189.5C699.5,-189.5 991.5,-189.5 991.5,-189.5 997.5,-189.5 1003.5,-195.5 1003.5,-201.5 1003.5,-201.5 1003.5,-283.5 1003.5,-283.5 1003.5,-289.5 997.5,-295.5 991.5,-295.5 991.5,-295.5 699.5,-295.5 699.5,-295.5 693.5,-295.5 687.5,-289.5 687.5,-283.5 687.5,-283.5 687.5,-201.5 687.5,-201.5 687.5,-195.5 693.5,-189.5 699.5,-189.5"/>
<text text-anchor="middle" x="845.5" y="-280.3" font-family="Times,serif" font-size="14.00">Broadcast</text>
<polyline fill="none" stroke="black" points="687.5,-272.5 1003.5,-272.5 "/>
<text text-anchor="start" x="695.5" y="-257.3" font-family="Times,serif" font-size="14.00">id :bigint</text>
<text text-anchor="start" x="695.5" y="-242.3" font-family="Times,serif" font-size="14.00">content :text</text>
<text text-anchor="start" x="695.5" y="-227.3" font-family="Times,serif" font-size="14.00">user_id :bigint</text>
<text text-anchor="start" x="695.5" y="-212.3" font-family="Times,serif" font-size="14.00">created_at :timestamp without time zone</text>
<text text-anchor="start" x="695.5" y="-197.3" font-family="Times,serif" font-size="14.00">updated_at :timestamp without time zone</text>
</g>
<!-- Feed -->
<g id="node6" class="node"><title>Feed</title>
<path fill="none" stroke="black" d="M699.5,-15.5C699.5,-15.5 991.5,-15.5 991.5,-15.5 997.5,-15.5 1003.5,-21.5 1003.5,-27.5 1003.5,-27.5 1003.5,-94.5 1003.5,-94.5 1003.5,-100.5 997.5,-106.5 991.5,-106.5 991.5,-106.5 699.5,-106.5 699.5,-106.5 693.5,-106.5 687.5,-100.5 687.5,-94.5 687.5,-94.5 687.5,-27.5 687.5,-27.5 687.5,-21.5 693.5,-15.5 699.5,-15.5"/>
<text text-anchor="middle" x="845.5" y="-91.3" font-family="Times,serif" font-size="14.00">Feed</text>
<polyline fill="none" stroke="black" points="687.5,-83.5 1003.5,-83.5 "/>
<text text-anchor="start" x="695.5" y="-68.3" font-family="Times,serif" font-size="14.00">id :bigint</text>
<text text-anchor="start" x="695.5" y="-53.3" font-family="Times,serif" font-size="14.00">name :character varying</text>
<text text-anchor="start" x="695.5" y="-38.3" font-family="Times,serif" font-size="14.00">created_at :timestamp without time zone</text>
<text text-anchor="start" x="695.5" y="-23.3" font-family="Times,serif" font-size="14.00">updated_at :timestamp without time zone</text>
</g>
<!-- Broadcast&#45;&gt;Feed -->
<g id="edge1" class="edge"><title>Broadcast&#45;&gt;Feed</title>
<path fill="none" stroke="#dd2551" d="M845.5,-179.061C845.5,-158.726 845.5,-136.324 845.5,-116.608"/>
<polygon fill="#dd2551" stroke="#dd2551" points="845.5,-179.099 841,-189.099 845.5,-184.099 845.5,-189.099 845.5,-189.099 845.5,-189.099 845.5,-184.099 850,-189.099 845.5,-179.099 845.5,-179.099"/>
<polygon fill="#dd2551" stroke="#dd2551" points="845.5,-116.568 850,-106.568 845.5,-111.568 845.5,-106.568 845.5,-106.568 845.5,-106.568 845.5,-111.568 841,-106.568 845.5,-116.568 845.5,-116.568"/>
</g>
<!-- UserDetail -->
<g id="node4" class="node"><title>UserDetail</title>
<path fill="none" stroke="black" d="M1034,-189.5C1034,-189.5 1295,-189.5 1295,-189.5 1301,-189.5 1307,-195.5 1307,-201.5 1307,-201.5 1307,-283.5 1307,-283.5 1307,-289.5 1301,-295.5 1295,-295.5 1295,-295.5 1034,-295.5 1034,-295.5 1028,-295.5 1022,-289.5 1022,-283.5 1022,-283.5 1022,-201.5 1022,-201.5 1022,-195.5 1028,-189.5 1034,-189.5"/>
<text text-anchor="middle" x="1164.5" y="-280.3" font-family="Times,serif" font-size="14.00">UserDetail</text>
<polyline fill="none" stroke="black" points="1022,-272.5 1307,-272.5 "/>
<text text-anchor="start" x="1030" y="-257.3" font-family="Times,serif" font-size="14.00">id :bigint</text>
<text text-anchor="start" x="1030" y="-242.3" font-family="Times,serif" font-size="14.00">login :character varying</text>
<text text-anchor="start" x="1030" y="-227.3" font-family="Times,serif" font-size="14.00">salt :character varying</text>
<text text-anchor="start" x="1030" y="-212.3" font-family="Times,serif" font-size="14.00">crypted_password :character varying</text>
<text text-anchor="start" x="1030" y="-197.3" font-family="Times,serif" font-size="14.00">user_id :bigint</text>
</g>
<!-- ApplicationRecord -->
<g id="node5" class="node"><title>ApplicationRecord</title>
<ellipse fill="none" stroke="black" cx="1437.5" cy="-446.5" rx="96.6831" ry="18"/>
<text text-anchor="middle" x="1437.5" y="-442.8" font-family="Times,serif" font-size="14.00">ApplicationRecord</text>
</g>
<!-- User -->
<g id="node7" class="node"><title>User</title>
<path fill="none" stroke="black" d="M1018.5,-363.5C1018.5,-363.5 1310.5,-363.5 1310.5,-363.5 1316.5,-363.5 1322.5,-369.5 1322.5,-375.5 1322.5,-375.5 1322.5,-517.5 1322.5,-517.5 1322.5,-523.5 1316.5,-529.5 1310.5,-529.5 1310.5,-529.5 1018.5,-529.5 1018.5,-529.5 1012.5,-529.5 1006.5,-523.5 1006.5,-517.5 1006.5,-517.5 1006.5,-375.5 1006.5,-375.5 1006.5,-369.5 1012.5,-363.5 1018.5,-363.5"/>
<text text-anchor="middle" x="1164.5" y="-514.3" font-family="Times,serif" font-size="14.00">User</text>
<polyline fill="none" stroke="black" points="1006.5,-506.5 1322.5,-506.5 "/>
<text text-anchor="start" x="1014.5" y="-491.3" font-family="Times,serif" font-size="14.00">id :bigint</text>
<text text-anchor="start" x="1014.5" y="-476.3" font-family="Times,serif" font-size="14.00">surname :character varying</text>
<text text-anchor="start" x="1014.5" y="-461.3" font-family="Times,serif" font-size="14.00">firstname :character varying</text>
<text text-anchor="start" x="1014.5" y="-446.3" font-family="Times,serif" font-size="14.00">phone :character varying</text>
<text text-anchor="start" x="1014.5" y="-431.3" font-family="Times,serif" font-size="14.00">grad_year :integer</text>
<text text-anchor="start" x="1014.5" y="-416.3" font-family="Times,serif" font-size="14.00">jobs :boolean</text>
<text text-anchor="start" x="1014.5" y="-401.3" font-family="Times,serif" font-size="14.00">email :character varying</text>
<text text-anchor="start" x="1014.5" y="-386.3" font-family="Times,serif" font-size="14.00">created_at :timestamp without time zone</text>
<text text-anchor="start" x="1014.5" y="-371.3" font-family="Times,serif" font-size="14.00">updated_at :timestamp without time zone</text>
</g>
<!-- User&#45;&gt;Broadcast -->
<g id="edge4" class="edge"><title>User&#45;&gt;Broadcast</title>
<path fill="none" stroke="#6fc11a" d="M1027.97,-359.044C997.141,-339.523 965.145,-319.263 936.716,-301.261"/>
<ellipse fill="none" stroke="#6fc11a" cx="1031.37" cy="-361.199" rx="4.00002" ry="4.00002"/>
<polygon fill="#6fc11a" stroke="#6fc11a" points="936.462,-301.1 930.421,-291.948 932.238,-298.425 928.013,-295.75 928.013,-295.75 928.013,-295.75 932.238,-298.425 925.606,-299.552 936.462,-301.1 936.462,-301.1"/>
</g>
<!-- User&#45;&gt;UserDetail -->
<g id="edge3" class="edge"><title>User&#45;&gt;UserDetail</title>
<path fill="none" stroke="#f1f78d" d="M1164.5,-355.266C1164.5,-337.92 1164.5,-320.146 1164.5,-304.021"/>
<ellipse fill="none" stroke="#f1f78d" cx="1164.5" cy="-359.339" rx="4" ry="4"/>
<ellipse fill="#f1f78d" stroke="#f1f78d" cx="1164.5" cy="-299.75" rx="4" ry="4"/>
</g>
<!-- Image -->
<g id="node9" class="node"><title>Image</title>
<path fill="none" stroke="black" d="M1337.5,-182C1337.5,-182 1677.5,-182 1677.5,-182 1683.5,-182 1689.5,-188 1689.5,-194 1689.5,-194 1689.5,-291 1689.5,-291 1689.5,-297 1683.5,-303 1677.5,-303 1677.5,-303 1337.5,-303 1337.5,-303 1331.5,-303 1325.5,-297 1325.5,-291 1325.5,-291 1325.5,-194 1325.5,-194 1325.5,-188 1331.5,-182 1337.5,-182"/>
<text text-anchor="middle" x="1507.5" y="-287.8" font-family="Times,serif" font-size="14.00">Image</text>
<polyline fill="none" stroke="black" points="1325.5,-280 1689.5,-280 "/>
<text text-anchor="start" x="1333.5" y="-264.8" font-family="Times,serif" font-size="14.00">id :bigint</text>
<text text-anchor="start" x="1333.5" y="-249.8" font-family="Times,serif" font-size="14.00">user_id :bigint</text>
<text text-anchor="start" x="1333.5" y="-234.8" font-family="Times,serif" font-size="14.00">photo_file_name :character varying</text>
<text text-anchor="start" x="1333.5" y="-219.8" font-family="Times,serif" font-size="14.00">photo_content_type :character varying</text>
<text text-anchor="start" x="1333.5" y="-204.8" font-family="Times,serif" font-size="14.00">photo_file_size :integer</text>
<text text-anchor="start" x="1333.5" y="-189.8" font-family="Times,serif" font-size="14.00">photo_updated_at :timestamp without time zone</text>
</g>
<!-- User&#45;&gt;Image -->
<g id="edge2" class="edge"><title>User&#45;&gt;Image</title>
<path fill="none" stroke="#22ea97" d="M1311.25,-359.074C1340.77,-341.691 1371.28,-323.72 1399.2,-307.279"/>
<ellipse fill="none" stroke="#22ea97" cx="1307.46" cy="-361.309" rx="4.00002" ry="4.00002"/>
<ellipse fill="#22ea97" stroke="#22ea97" cx="1402.79" cy="-305.163" rx="4.00002" ry="4.00002"/>
</g>
<!-- BroadcastService -->
<g id="node8" class="node"><title>BroadcastService</title>
<polygon fill="none" stroke="black" points="1552,-423.5 1552,-469.5 1695,-469.5 1695,-423.5 1552,-423.5"/>
<text text-anchor="middle" x="1623.5" y="-454.3" font-family="Times,serif" font-size="14.00">BroadcastService</text>
<polyline fill="none" stroke="black" points="1552,-446.5 1695,-446.5 "/>
<text text-anchor="middle" x="1623.5" y="-431.3" font-family="Times,serif" font-size="14.00"> </text>
</g>
<!-- ImageService -->
<g id="node10" class="node"><title>ImageService</title>
<polygon fill="none" stroke="black" points="1713,-423.5 1713,-469.5 1828,-469.5 1828,-423.5 1713,-423.5"/>
<text text-anchor="middle" x="1770.5" y="-454.3" font-family="Times,serif" font-size="14.00">ImageService</text>
<polyline fill="none" stroke="black" points="1713,-446.5 1828,-446.5 "/>
<text text-anchor="middle" x="1770.5" y="-431.3" font-family="Times,serif" font-size="14.00"> </text>
</g>
<!-- Post -->
<g id="node11" class="node"><title>Post</title>
<path fill="none" stroke="black" d="M287.5,-159.5C287.5,-159.5 579.5,-159.5 579.5,-159.5 585.5,-159.5 591.5,-165.5 591.5,-171.5 591.5,-171.5 591.5,-313.5 591.5,-313.5 591.5,-319.5 585.5,-325.5 579.5,-325.5 579.5,-325.5 287.5,-325.5 287.5,-325.5 281.5,-325.5 275.5,-319.5 275.5,-313.5 275.5,-313.5 275.5,-171.5 275.5,-171.5 275.5,-165.5 281.5,-159.5 287.5,-159.5"/>
<text text-anchor="middle" x="433.5" y="-310.3" font-family="Times,serif" font-size="14.00">Post</text>
<polyline fill="none" stroke="black" points="275.5,-302.5 591.5,-302.5 "/>
<text text-anchor="start" x="283.5" y="-287.3" font-family="Times,serif" font-size="14.00">id :bigint</text>
<text text-anchor="start" x="283.5" y="-272.3" font-family="Times,serif" font-size="14.00">title :character varying</text>
<text text-anchor="start" x="283.5" y="-257.3" font-family="Times,serif" font-size="14.00">body :text</text>
<text text-anchor="start" x="283.5" y="-242.3" font-family="Times,serif" font-size="14.00">date :timestamp without time zone</text>
<text text-anchor="start" x="283.5" y="-227.3" font-family="Times,serif" font-size="14.00">user_id :bigint</text>
<text text-anchor="start" x="283.5" y="-212.3" font-family="Times,serif" font-size="14.00">topic_id :bigint</text>
<text text-anchor="start" x="283.5" y="-197.3" font-family="Times,serif" font-size="14.00">parent_id :integer</text>
<text text-anchor="start" x="283.5" y="-182.3" font-family="Times,serif" font-size="14.00">created_at :timestamp without time zone</text>
<text text-anchor="start" x="283.5" y="-167.3" font-family="Times,serif" font-size="14.00">updated_at :timestamp without time zone</text>
</g>
<!-- Post&#45;&gt;PostsRead -->
<g id="edge6" class="edge"><title>Post&#45;&gt;PostsRead</title>
<path fill="none" stroke="#4a8360" d="M433.5,-151.288C433.5,-144.67 433.5,-138.055 433.5,-131.588"/>
<ellipse fill="none" stroke="#4a8360" cx="433.5" cy="-155.367" rx="4" ry="4"/>
<polygon fill="#4a8360" stroke="#4a8360" points="433.5,-131.567 438,-121.567 433.5,-126.567 433.5,-121.567 433.5,-121.567 433.5,-121.567 433.5,-126.567 429,-121.567 433.5,-131.567 433.5,-131.567"/>
</g>
<!-- Post&#45;&gt;Post -->
<g id="edge5" class="edge"><title>Post&#45;&gt;Post</title>
<path fill="none" stroke="#af4b3e" d="M599.511,-253.615C605.848,-250.704 609.5,-246.999 609.5,-242.5 609.5,-238.384 606.443,-234.933 601.07,-232.145"/>
<ellipse fill="none" stroke="#af4b3e" cx="595.388" cy="-255.104" rx="4.00001" ry="4.00001"/>
<polygon fill="#af4b3e" stroke="#af4b3e" points="600.967,-232.106 593.231,-224.333 596.296,-230.322 591.625,-228.537 591.625,-228.537 591.625,-228.537 596.296,-230.322 590.019,-232.741 600.967,-232.106 600.967,-232.106"/>
<text text-anchor="middle" x="639.5" y="-238.8" font-family="Times,serif" font-size="14.00">children</text>
</g>
<!-- Topic -->
<g id="node12" class="node"><title>Topic</title>
<path fill="none" stroke="black" d="M287.5,-386C287.5,-386 579.5,-386 579.5,-386 585.5,-386 591.5,-392 591.5,-398 591.5,-398 591.5,-495 591.5,-495 591.5,-501 585.5,-507 579.5,-507 579.5,-507 287.5,-507 287.5,-507 281.5,-507 275.5,-501 275.5,-495 275.5,-495 275.5,-398 275.5,-398 275.5,-392 281.5,-386 287.5,-386"/>
<text text-anchor="middle" x="433.5" y="-491.8" font-family="Times,serif" font-size="14.00">Topic</text>
<polyline fill="none" stroke="black" points="275.5,-484 591.5,-484 "/>
<text text-anchor="start" x="283.5" y="-468.8" font-family="Times,serif" font-size="14.00">id :bigint</text>
<text text-anchor="start" x="283.5" y="-453.8" font-family="Times,serif" font-size="14.00">title :character varying</text>
<text text-anchor="start" x="283.5" y="-438.8" font-family="Times,serif" font-size="14.00">date :timestamp without time zone</text>
<text text-anchor="start" x="283.5" y="-423.8" font-family="Times,serif" font-size="14.00">user_id :bigint</text>
<text text-anchor="start" x="283.5" y="-408.8" font-family="Times,serif" font-size="14.00">created_at :timestamp without time zone</text>
<text text-anchor="start" x="283.5" y="-393.8" font-family="Times,serif" font-size="14.00">updated_at :timestamp without time zone</text>
</g>
<!-- Topic&#45;&gt;Post -->
<g id="edge7" class="edge"><title>Topic&#45;&gt;Post</title>
<path fill="none" stroke="#e7778f" d="M433.5,-377.903C433.5,-364.458 433.5,-350.122 433.5,-336.01"/>
<ellipse fill="none" stroke="#e7778f" cx="433.5" cy="-381.986" rx="4" ry="4"/>
<polygon fill="#e7778f" stroke="#e7778f" points="433.5,-335.789 438,-325.789 433.5,-330.789 433.5,-325.789 433.5,-325.789 433.5,-325.789 433.5,-330.789 429,-325.789 433.5,-335.789 433.5,-335.789"/>
</g>
</g>
</svg>
